<svg xmlns="http://www.w3.org/2000/svg" width="28pt" height="28pt" viewBox="0 0 28 28"><defs><linearGradient id="linear0" gradientUnits="userSpaceOnUse" x1="16" y1="2" x2="16" y2="30" gradientTransform="scale(.875)"><stop offset=".24" stop-color="#cdeaff"/><stop offset=".34" stop-color="#c2e4ff"/><stop offset=".5" stop-color="#a5d5ff"/><stop offset=".72" stop-color="#76bcff"/><stop offset=".98" stop-color="#369aff"/><stop offset="1" stop-color="#3197ff"/></linearGradient></defs><g id="surface1"><path d="M26.25 14c0 6.766-5.484 12.25-12.25 12.25S1.75 20.766 1.75 14 7.234 1.75 14 1.75 26.25 7.234 26.25 14zm0 0" fill="url(#linear0)"/><path d="M14 .875C6.75.875.875 6.75.875 14S6.75 27.125 14 27.125 27.125 21.25 27.125 14 21.25.875 14 .875zm0 24.79C7.559 25.664 2.336 20.44 2.336 14 2.336 7.559 7.559 2.336 14 2.336S25.664 7.559 25.664 14C25.652 20.438 20.437 25.652 14 25.664zm0 0" fill="#1282ff"/><path d="M18.07 6.71l-1.226-1.17-8.297 9.335h7.09L9.93 21.297l1.226 1.156 8.297-9.328h-7.09zm0 0" fill="#1282ff"/></g></svg>