<svg xmlns="http://www.w3.org/2000/svg" width="28pt" height="28pt" viewBox="0 0 28 28"><g id="surface1"><path d="M25.117 11.84a1.168 1.168 0 00-1.164 0L21 13.277v-1.609c0-.645-.523-1.168-1.168-1.168h-1.375c.137-.375.207-.77.211-1.168a3.5 3.5 0 00-3.5-3.5 3.533 3.533 0 00-1.602.41 4.664 4.664 0 00-8.898 1.926c.008.82.234 1.625.652 2.332H3.5c-.645 0-1.168.523-1.168 1.168v11.664c0 .645.523 1.168 1.168 1.168h16.332c.645 0 1.168-.523 1.168-1.168v-1.61l2.977 1.493c.363.183.793.164 1.14-.047.344-.215.551-.594.551-1v-9.336a1.17 1.17 0 00-.55-.992zm-9.949-3.672a1.165 1.165 0 11-.002 2.333 1.165 1.165 0 01.002-2.333zM7 8.168a2.334 2.334 0 114.668-.004A2.334 2.334 0 017 8.168zm11.668 14h-14v-9.336h14zm4.664-1.89L21 19.108V15.89l2.332-1.168zm0 0"/><path d="M5.832 18.668H10.5V21H5.832zm0 0"/></g></svg>