<svg xmlns="http://www.w3.org/2000/svg" xmlns:xlink="http://www.w3.org/1999/xlink" width="28pt" height="28pt" viewBox="0 0 28 28"><defs><clipPath id="clip1"><path d="M0 0h28v28H0z"/></clipPath><clipPath id="clip2"><path d="M0 0h28v28H0z"/></clipPath><clipPath id="clip3"><path d="M0 0h28v28H0z"/></clipPath><clipPath id="clip4"><path d="M0 0h28v28H0z"/></clipPath><clipPath id="clip5"><path d="M0 0h28v28H0z"/></clipPath><clipPath id="clip6"><path d="M0 0h28v28H0z"/></clipPath><mask id="mask0"><g filter="url(#alpha)"><path fill-opacity=".149" d="M0 0h28v28H0z"/></g></mask><mask id="mask1"><g filter="url(#alpha)"><path fill-opacity=".149" d="M0 0h28v28H0z"/></g></mask><mask id="mask2"><g filter="url(#alpha)"><path fill-opacity=".149" d="M0 0h28v28H0z"/></g></mask><mask id="mask3"><g filter="url(#alpha)"><path fill-opacity=".149" d="M0 0h28v28H0z"/></g></mask><mask id="mask4"><g filter="url(#alpha)"><path fill-opacity=".149" d="M0 0h28v28H0z"/></g></mask><mask id="mask5"><g filter="url(#alpha)"><path fill-opacity=".149" d="M0 0h28v28H0z"/></g></mask><g id="surface5" clip-path="url(#clip1)"><path d="M21.191 21.191l1.473 1.473c4.781-4.785 4.781-12.543 0-17.328l-1.473 1.473a10.168 10.168 0 010 14.382zm0 0"/></g><g id="surface8" clip-path="url(#clip2)"><path d="M14 24.172v2.078a12.22 12.22 0 008.664-3.586l-1.473-1.473A10.138 10.138 0 0114 24.171zm0 0"/></g><g id="surface11" clip-path="url(#clip3)"><path d="M21.191 6.809l1.473-1.473A12.22 12.22 0 0014 1.75v2.078c2.7-.004 5.285 1.07 7.191 2.98zm0 0"/></g><g id="surface14" clip-path="url(#clip4)"><path d="M19.828 8.172l-4.332 7.32-1.496.875v7.805c5.617 0 10.172-4.555 10.172-10.172 0-5.617-4.555-10.172-10.172-10.172v7.793zm0 0"/></g><g id="surface17" clip-path="url(#clip5)"><path d="M15.496 15.496l4.332-7.324L14 11.622V14zm0 0"/></g><g id="surface20" clip-path="url(#clip6)"><path d="M14 14v2.379l1.496-.883zm0 0"/></g><filter id="alpha" filterUnits="objectBoundingBox" x="0%" y="0%" width="100%" height="100%"><feColorMatrix in="SourceGraphic" values="0 0 0 0 1 0 0 0 0 1 0 0 0 0 1 0 0 0 1 0"/></filter></defs><g id="surface1"><path d="M14 1.75a12.253 12.253 0 00-12.016 9.86 12.253 12.253 0 0022.203 9.195 12.252 12.252 0 00-1.523-15.47A12.22 12.22 0 0014 1.75zm7.191 19.441a10.168 10.168 0 01-14.382 0 10.168 10.168 0 010-14.382 10.168 10.168 0 0114.382 0A10.127 10.127 0 0124.184 14c0 2.7-1.075 5.29-2.993 7.191zm0 0" fill="#677a91"/><path d="M14 3.828a10.174 10.174 0 00-3.895 19.57 10.175 10.175 0 0012.352-3.746A10.17 10.17 0 0021.191 6.81 10.138 10.138 0 0014 3.829zm1.496 11.668L14 16.371l-5.828 3.457 4.332-7.32L14 11.633l5.824-3.445zm0 0" fill="#ecf1f6"/><path d="M12.504 12.504l-4.332 7.324L14 16.378l1.496-.882zm0 0" fill="#6e9eff"/><path d="M12.504 12.504l2.992 2.992 4.332-7.324L14 11.622zm0 0" fill="#fc445d"/><use xlink:href="#surface5" mask="url(#mask0)"/><use xlink:href="#surface8" mask="url(#mask1)"/><use xlink:href="#surface11" mask="url(#mask2)"/><use xlink:href="#surface14" mask="url(#mask3)"/><use xlink:href="#surface17" mask="url(#mask4)"/><use xlink:href="#surface20" mask="url(#mask5)"/></g></svg>