<svg style="border:1px solid #dc143c" id="Laag_1" version="1.1" viewBox="0 0 512 512" xml:space="preserve" xmlns="http://www.w3.org/2000/svg"><g fill="none" stroke="#008ed6" stroke-miterlimit="10" stroke-width="7"><path d="M438.3 176.7s-3.6-27.4-14.8-39.4c-14.2-15.8-30-15.9-37.3-16.8-52.1-4-130.2-4-130.2-4h-.2s-78.1 0-130.2 4c-7.3.9-23.1 1-37.3 16.8-11.1 12.1-14.8 39.4-14.8 39.4S70 208.8 70 240.9V271c0 32.1 3.7 64.2 3.7 64.2s3.6 27.4 14.8 39.4c14.2 15.8 32.7 15.3 41 17 29.8 3 126.5 4 126.5 4s78.2-.1 130.3-4.1c7.3-.9 23.1-1 37.3-16.8 11.1-12 14.8-39.4 14.8-39.4s3.7-32.1 3.7-64.2V241c-.1-32.2-3.8-64.3-3.8-64.3z"/><path d="M209.5 186.2v139.6L325.8 256z"/></g></svg>