<svg xmlns="http://www.w3.org/2000/svg" width="32" height="32" viewBox="0 0 24 24"><g id="surface1" fill="none" stroke-width=".328" stroke="#008ed6" stroke-miterlimit="10"><path d="M20.547 8.281S20.375 7 19.852 6.437c-.665-.742-1.407-.746-1.75-.789C15.66 5.461 12 5.461 12 5.461h-.008s-3.664 0-6.105.187c-.34.043-1.082.047-1.746.79-.524.566-.696 1.843-.696 1.843s-.164 1.508-.164 3.012v1.41c0 1.504.172 3.008.172 3.008s.172 1.285.695 1.848c.665.742 1.532.718 1.922.796 1.399.141 5.93.188 5.93.188s3.664-.004 6.11-.191c.34-.043 1.081-.047 1.745-.79.52-.562.696-1.843.696-1.843s.172-1.508.172-3.012v-1.41a31.233 31.233 0 00-.176-3.016zm0 0"/><path d="M9.82 8.727v6.546L15.273 12zm0 0"/></g></svg>