<svg viewBox="0 0 32 32" xmlns="http://www.w3.org/2000/svg"><g id="icons"><path class="st0" d="M16 2c-3.9 0-7.4 1.6-9.9 4.1C3.6 8.6 2 12.1 2 16c0 7.7 6.3 14 14 14 3.9 0 7.4-1.6 9.9-4.1 2.5-2.5 4.1-6 4.1-9.9 0-7.7-6.3-14-14-14zm8.7 19.4c-.4.1-2.6 0-2.7 0-.6 0-1.1-.2-1.5-.6-.5-.4-.9-.9-1.3-1.4l-.4-.4c-.4-.3-.7-.2-.9.2-.1.4-.3 1.3-.3 1.4 0 .4-.3.7-.8.7-1.4.1-2.7-.1-3.9-.7-1-.6-1.9-1.3-2.6-2.3-1.1-1.5-2-3.1-2.9-4.7 0-.1-.9-1.9-.9-2-.1-.3 0-.5.2-.6h3.1c.4 0 .7.2.9.7.5 1.3 1.2 2.5 2.1 3.6l.4.4c.2.1.4.1.5-.2.1-.3.2-.8.2-1.1v-2c0-.5-.2-.9-.9-1-.2 0-.2-.2-.1-.4.3-.4.7-.4 1.1-.4h2.1c.3 0 .6 0 .9.1.4.1.6.3.6.7v.6c0 .8-.1 1.6-.1 2.4 0 .3 0 .6.1 1s.4.5.7.2c.4-.4.7-.8 1-1.3.6-.8 1-1.7 1.4-2.7.2-.5.3-.6.9-.6h2.9c.2 0 .3 0 .5.1.3.1.4.3.3.6-.1.6-.5 1.2-.9 1.7-.6.8-1.2 1.7-1.8 2.5-.1.1-.1.2-.2.3-.2.4-.2.6.1 1l1.6 1.6c.4.4.7.8 1 1.3.5.6.3 1.2-.4 1.3z" id="vk"/></g></svg>