<svg data-name="Layer 3" id="Layer_3" width="32" height="32" xmlns="http://www.w3.org/2000/svg"><defs><style>.cls-1{fill:none;stroke:#008ed6;stroke-linecap:round;stroke-linejoin:round;stroke-width:2px}</style></defs><path class="cls-1" d="M14.38 13.53a3.39 3.39 0 01-3.2 3.41A3.39 3.39 0 018 13.53a3.2 3.2 0 116.4 0zM17.78 24a6.6 6.6 0 00-13.2 0z"/><path fill="#008ed6" d="M17.13 22H5.21l-.63 2H17.5l-.37-2z"/><path class="cls-1" d="M24.85 11.53a3.39 3.39 0 01-3.2 3.41 3.39 3.39 0 01-3.2-3.41 3.2 3.2 0 116.4 0zM17.71 22h10.53a6.6 6.6 0 00-12.49-3"/><path fill="none" stroke="#008ed6" stroke-linecap="round" stroke-linejoin="round" d="M16.5 19.5h11"/></svg>