<svg xmlns="http://www.w3.org/2000/svg" width="32" height="32" viewBox="0 0 24 24"><g id="surface1"><path d="M10.785 10.148a2.539 2.539 0 01-2.398 2.555A2.536 2.536 0 016 10.148a2.4 2.4 0 114.8 0zM13.336 18a4.951 4.951 0 00-9.902 0zm0 0" fill="none" stroke-width="1.5" stroke-linecap="round" stroke-linejoin="round" stroke="#008ed6"/><path d="M12.848 16.5H3.906L3.434 18h9.691zm0 0" fill="#008ed6"/><path d="M18.637 8.648a2.539 2.539 0 01-2.399 2.555 2.542 2.542 0 01-2.402-2.555 2.4 2.4 0 114.8 0zM13.281 16.5h7.899a4.949 4.949 0 00-9.367-2.25" fill="none" stroke-width="1.5" stroke-linecap="round" stroke-linejoin="round" stroke="#008ed6"/><path d="M16.5 19.5h11" transform="scale(.75)" fill="none" stroke-linecap="round" stroke-linejoin="round" stroke="#008ed6"/></g></svg>